<mxfile host="app.diagrams.net" modified="2023-03-01T11:23:39.625Z" agent="5.0 (Windows NT 10.0; Win64; x64) AppleWebKit/537.36 (KHTML, like Gecko) Chrome/109.0.0.0 Safari/537.36" etag="dhh_CQ7-rj0QgjPrAYNI" version="20.8.23" type="github">
  <diagram name="第 1 页" id="g1h5cB7XiAgx7idSseDB">
    <mxGraphModel dx="1292" dy="809" grid="1" gridSize="10" guides="1" tooltips="1" connect="1" arrows="1" fold="1" page="1" pageScale="1" pageWidth="827" pageHeight="1169" math="0" shadow="0">
      <root>
        <mxCell id="0" />
        <mxCell id="1" parent="0" />
        <mxCell id="VorrbT6WTwwFNRQ9nJY7-2" value="" style="ellipse;html=1;shape=startState;fillColor=#e1d5e7;strokeColor=#9673a6;" vertex="1" parent="1">
          <mxGeometry x="400" y="370" width="30" height="30" as="geometry" />
        </mxCell>
        <mxCell id="VorrbT6WTwwFNRQ9nJY7-3" value="" style="edgeStyle=orthogonalEdgeStyle;html=1;verticalAlign=bottom;endArrow=open;endSize=8;strokeColor=#ff0000;rounded=0;" edge="1" source="VorrbT6WTwwFNRQ9nJY7-2" parent="1" target="VorrbT6WTwwFNRQ9nJY7-4">
          <mxGeometry relative="1" as="geometry">
            <mxPoint x="415" y="460" as="targetPoint" />
          </mxGeometry>
        </mxCell>
        <mxCell id="VorrbT6WTwwFNRQ9nJY7-4" value="" style="html=1;shadow=0;dashed=0;align=center;verticalAlign=middle;shape=mxgraph.arrows2.arrow;dy=0;dx=10;notch=10;" vertex="1" parent="1">
          <mxGeometry x="365" y="445" width="100" height="30" as="geometry" />
        </mxCell>
      </root>
    </mxGraphModel>
  </diagram>
</mxfile>
